<?xml version="1.0" encoding="UTF-8"?>
<svg version="1.1" xmlns="http://www.w3.org/2000/svg" width="32" height="32">
<path d="M0 0 C0.78375 0.495 1.5675 0.99 2.375 1.5 C1.32625002 4.12187494 0.72568687 5.29371361 -1.75 6.75 C-2.36875 6.9975 -2.9875 7.245 -3.625 7.5 C-3.955 7.17 -4.285 6.84 -4.625 6.5 C-7.55337603 6.21196301 -9.77534122 6.01306801 -12.625 6.5 C-15.62493115 9.04994148 -16.47980459 10.62882756 -17.125 14.5 C-16.47980459 18.37117244 -15.62493115 19.95005852 -12.625 22.5 C-9.67075205 23.13008105 -7.71844778 22.89281877 -4.625 22.5 C-2.615755 21.16641006 -2.615755 21.16641006 -1.625 19.5 C-3.935 19.17 -6.245 18.84 -8.625 18.5 C-8.625 16.19 -8.625 13.88 -8.625 11.5 C-3.345 11.5 1.935 11.5 7.375 11.5 C6.95775931 19.21895278 6.26379916 23.96472804 0.3125 29.375 C-4.85064772 31.35237572 -10.44837837 31.47921548 -15.75390625 29.84375 C-19.51525137 27.95901551 -22.09754186 25.3216255 -23.96484375 21.5546875 C-25.67696073 16.22585003 -25.5628279 10.66895152 -23.0625 5.625 C-17.01595466 -2.1269812 -8.98986031 -3.7199422 0 0 Z " fill="#2E87FA" transform="translate(24.625,1.5)"/>
<path d="M0 0 C0.78375 0.495 1.5675 0.99 2.375 1.5 C1.32625002 4.12187494 0.72568687 5.29371361 -1.75 6.75 C-2.36875 6.9975 -2.9875 7.245 -3.625 7.5 C-3.955 7.17 -4.285 6.84 -4.625 6.5 C-7.55337603 6.21196301 -9.77534122 6.01306801 -12.625 6.5 C-15.71018908 9.12241072 -16.5347003 10.59700299 -16.9375 14.625 C-16.72046611 17.56670525 -16.72046611 17.56670525 -15.625 20.5 C-16.285 20.5 -16.945 20.5 -17.625 20.5 C-18.285 21.82 -18.945 23.14 -19.625 24.5 C-21.5625 23.6875 -21.5625 23.6875 -23.625 22.5 C-25.24724917 17.63325248 -25.52488787 12.37313597 -23.9765625 7.4296875 C-22.06018449 3.64606937 -19.48117182 1.05095562 -15.68359375 -0.84375 C-10.24458357 -2.57762801 -5.21140467 -2.15644331 0 0 Z " fill="#FE4744" transform="translate(24.625,1.5)"/>
<path d="M0 0 C2.21844626 0.19015254 3.41522155 0.41522155 5 2 C10.6047709 2.21326403 10.6047709 2.21326403 16 1 C19 4.625 19 4.625 19 8 C14.20542427 10.80712864 9.41072717 10.64104525 4 10 C0.61892263 8.74906038 -2.3277272 7.34454561 -4 4 C-2.25 1.9375 -2.25 1.9375 0 0 Z " fill="#0FBC5D" transform="translate(7,22)"/>
<path d="M0 0 C3.26954202 0.56371414 4.82575883 1.49962266 7 4 C6.67 4.66 6.34 5.32 6 6 C5.85624578 9.37822416 5.92463652 11.77390955 7 15 C6.34 15 5.68 15 5 15 C4.34 16.32 3.68 17.64 3 19 C1.0625 18.1875 1.0625 18.1875 -1 17 C-1.9702889 14.08913331 -2.16467847 12.09776315 -2.1875 9.0625 C-2.20167969 8.20785156 -2.21585937 7.35320313 -2.23046875 6.47265625 C-1.98703556 3.86090697 -1.3178268 2.24499348 0 0 Z " fill="#FCCB08" transform="translate(2,7)"/>
<path d="M0 0 C0.33 0.66 0.66 1.32 1 2 C1.66 2.33 2.32 2.66 3 3 C3.625 5.0625 3.625 5.0625 4 7 C2.3125 8.1875 2.3125 8.1875 0 9 C-2.75 7.625 -2.75 7.625 -5 6 C-3.63016497 2.83884224 -3.0109362 2.0072908 0 0 Z " fill="#FC5F33" transform="translate(8,1)"/>
<path d="M0 0 C2 1.8125 2 1.8125 4 4 C4 4.99 4 5.98 4 7 C2.35 7.33 0.7 7.66 -1 8 C-1.66 6.02 -2.32 4.04 -3 2 C-2.01 1.34 -1.02 0.68 0 0 Z " fill="#0CAD8F" transform="translate(22,23)"/>
<path d="M0 0 C1.32 0.66 2.64 1.32 4 2 C2.95125002 4.62187494 2.35068687 5.79371361 -0.125 7.25 C-0.74375 7.4975 -1.3625 7.745 -2 8 C-2.6875 5.6875 -2.6875 5.6875 -3 3 C-1.5625 1.1875 -1.5625 1.1875 0 0 Z " fill="#F75055" transform="translate(23,1)"/>
<path d="M0 0 C1.32 0.33 2.64 0.66 4 1 C2.02 3.97 2.02 3.97 0 7 C-1.32 6.34 -2.64 5.68 -4 5 C-2.68 3.35 -1.36 1.7 0 0 Z " fill="#70BD1B" transform="translate(7,22)"/>
<path d="M0 0 C0.99 0.33 1.98 0.66 3 1 C2.1875 3.4375 2.1875 3.4375 1 6 C0.01 6.33 -0.98 6.66 -2 7 C-2 3 -2 3 0 0 Z " fill="#31BC3B" transform="translate(10,24)"/>
<path d="M0 0 C3.26954202 0.56371414 4.82575883 1.49962266 7 4 C3.88742431 4 1.89234315 3.82638376 -1 3 C-0.67 2.01 -0.34 1.02 0 0 Z " fill="#FBB10F" transform="translate(2,7)"/>
<path d="M0 0 C0.66 0.99 1.32 1.98 2 3 C1.34 3 0.68 3 0 3 C-0.66 4.32 -1.32 5.64 -2 7 C-3.32 6.34 -4.64 5.68 -6 5 C-5.38125 4.731875 -4.7625 4.46375 -4.125 4.1875 C-1.7004767 3.04443152 -1.7004767 3.04443152 0 0 Z " fill="#B0C407" transform="translate(7,19)"/>
<path d="M0 0 C0.99 0.33 1.98 0.66 3 1 C2.34 2.32 1.68 3.64 1 5 C-0.32 5 -1.64 5 -3 5 C-3 4.01 -3 3.02 -3 2 C-2.01 1.34 -1.02 0.68 0 0 Z " fill="#E4CA02" transform="translate(4,18)"/>
<path d="M0 0 C1.65 0 3.3 0 5 0 C5.99 2.31 6.98 4.62 8 7 C6.0625 6.25 6.0625 6.25 4 5 C3.63837971 3.67405895 3.30271961 2.34061543 3 1 C2.01 0.67 1.02 0.34 0 0 Z " fill="#12B768" transform="translate(14,25)"/>
<path d="M0 0 C2.16874252 0.50603992 3.99967627 0.99983813 6 2 C5.34 3.32 4.68 4.64 4 6 C2.62437146 4.71034824 1.29233607 3.37310707 0 2 C0 1.34 0 0.68 0 0 Z " fill="#1B98C9" transform="translate(23,23)"/>
<path d="M0 0 C3.875 4.75 3.875 4.75 5 7 C0.25 5.125 0.25 5.125 -2 4 C-1.34 2.68 -0.68 1.36 0 0 Z " fill="#E68B29" transform="translate(5,3)"/>
</svg>
